<?xml version="1.0" standalone="no"?>
<!DOCTYPE svg PUBLIC "-//W3C//DTD SVG 1.1//EN" "http://www.w3.org/Graphics/SVG/1.1/DTD/svg11.dtd">
<svg version="1.1" xmlns="http://www.w3.org/2000/svg" viewBox="0 0 22.94941780298211 214.33511641223663" width="22.94941780298211" height="214.33511641223663"><!-- svg-source:excalidraw --><metadata></metadata><defs><style class="style-fonts">
      </style></defs><g stroke-linecap="round"><g transform="translate(12.508960694206962 9.634902314553017) rotate(0 -1.0342517927159065 97.5326558915653)"><path d="M-1.15 0.93 C-1.37 33.4, -1.97 162.43, -2.14 194.7 M0.44 0.37 C0.24 32.52, -2.03 160.98, -2.51 193" stroke="#1e1e1e" stroke-width="2" fill="none"></path></g><g transform="translate(12.508960694206962 9.634902314553017) rotate(0 -1.0342517927159065 97.5326558915653)"><path d="M-10.68 169.37 C-7.3 176.68, -5.63 181.98, -2.51 193 M-10.68 169.37 C-8.36 176.8, -5.53 185.74, -2.51 193" stroke="#1e1e1e" stroke-width="2" fill="none"></path></g><g transform="translate(12.508960694206962 9.634902314553017) rotate(0 -1.0342517927159065 97.5326558915653)"><path d="M6.42 169.65 C5.89 176.73, 3.66 181.97, -2.51 193 M6.42 169.65 C2.7 177.03, -0.51 185.87, -2.51 193" stroke="#1e1e1e" stroke-width="2" fill="none"></path></g></g><mask></mask></svg>