<?xml version="1.0" standalone="no"?>
<!DOCTYPE svg PUBLIC "-//W3C//DTD SVG 1.1//EN" "http://www.w3.org/Graphics/SVG/1.1/DTD/svg11.dtd">
<svg version="1.1" xmlns="http://www.w3.org/2000/svg" viewBox="0 0 226.98467636591727 52.26313369944393" width="226.98467636591727" height="52.26313369944393"><!-- svg-source:excalidraw --><metadata></metadata><defs><style class="style-fonts">
      </style></defs><g stroke-linecap="round"><g transform="translate(11.278130996953692 10.04135395186023) rotate(0 102.21420718600494 16.090212897861733)"><path d="M0.12 0.66 C9 5.62, 18.77 25.72, 53.04 30.42 C87.3 35.11, 180.18 29.2, 205.71 28.83 M-1.28 -0.04 C7.43 4.47, 17.51 23.41, 51.9 28.41 C86.3 33.41, 179.27 29.89, 205.1 29.95" stroke="#1e1e1e" stroke-width="2" fill="none"></path></g><g transform="translate(11.278130996953692 10.04135395186023) rotate(0 102.21420718600494 16.090212897861733)"><path d="M181.74 38.86 C189.34 35.74, 195.15 34.34, 205.1 29.95 M181.74 38.86 C188.55 36.15, 193.35 34.59, 205.1 29.95" stroke="#1e1e1e" stroke-width="2" fill="none"></path></g><g transform="translate(11.278130996953692 10.04135395186023) rotate(0 102.21420718600494 16.090212897861733)"><path d="M181.47 21.77 C189.24 23.44, 195.13 26.83, 205.1 29.95 M181.47 21.77 C188.47 23.65, 193.34 26.7, 205.1 29.95" stroke="#1e1e1e" stroke-width="2" fill="none"></path></g></g><mask></mask></svg>